<?xml version="1.0" encoding="UTF-8"?>
<svg xmlns="http://www.w3.org/2000/svg"
     version="1.1"
     viewBox="0 0 708.2921 134.1076"
     preserveAspectRatio="xMidYMid meet">
  <g id="Protocore" transform="translate(-693.0701 -479.8255)">
    <g id="Logo_x5F_Basis">
      <path d="M1137.2,528.96s.01-.03,0-.03c-3.27-1.67-8.55-1.8-12.08-1.43-7.44.77-12.52,2.89-15.74,6.69v-7.45h-16.46s0,2.34,0,2.35v54.49s0,0,0,0h16.44s0,0,0,0v-28.12c.16-5.88,2.32-7.88,3.13-8.82,4.93-5.81,9.96-4.73,13.95-3.13.01,0,.03,0,.04-.02,2.1-5.75,5.71-10.87,10.72-14.52" fill="#1d1d1b"/>
      <path d="M997.18,562c-17.25-8.33-13.11-45.29,10.08-44.99,10.64.14,15.72,6.3,16.86,8.24l14.59-7.27c-.99-2.98-4.29-6.07-5.41-7.18-26.28-26.11-67.75-1.77-67.06,32.51.7,34.91,42.1,51.36,64.54,30.19,0,0,0,0,0,0-4.93-7.69-5.06-15.39-5.06-15.39-4.88,3.83-14.92,10.48-28.55,3.9" fill="#1d1d1b"/>
      <path d="M1060.12,568c-15.37,1.38-17.11-22.69-4.72-26.02,17.55-4.72,20.53,24.6,4.72,26.02M1051.87,527.29c-27.88,5.36-28.78,51.81,3.3,55.38,44.31,4.94,41.43-63.99-3.3-55.38" fill="#1d1d1b"/>
      <path d="M891.19,509.44l-.16,15.28h14.51v11.95h-14.64c-.11,8.11-.81,18.41,0,26.39.77,7.64,11.57,4.02,12.79,4.26.7.14,1.41,10.99,1.84,13.61-14.23,2.67-29.22,1.73-31.15-14.43-.92-7.72.14-22.77.16-28.79v-1.04h-7.25v-11.95h7.15v-16.41h16.76l-.03,1.13Z" fill="#1d1d1b"/>
      <path d="M820,528.96s.01-.03,0-.03c-3.27-1.67-8.55-1.8-12.08-1.43-7.44.77-12.52,2.89-15.74,6.69v-7.45h-16.46s0,2.34,0,2.35v54.49s0,0,0,0h16.44s0,0,0,0v-28.12c.16-5.88,2.32-7.88,3.13-8.82,4.93-5.81,9.96-4.73,13.95-3.13.01,0,.03,0,.04-.02,2.1-5.75,5.71-10.87,10.72-14.52" fill="#1d1d1b"/>
      <path d="M731.35,542.25s0,0,0,0v-22.16s0,0,0,0c30.9-3.59,28.67,24.94,0,22.16M748.73,506.47c-10.78-1.42-24.34-1.64-35.66,0,0,0,0,0,0,0v76.64h18.29v-23.84c15.72-.33,22.82-2.87,31.52-10.19,16.44-13.83,7.95-39.71-14.15-42.61" fill="#1d1d1b"/>
      <path d="M841.35,568.2c-15.36,1.38-17.1-22.69-4.72-26.02,17.55-4.72,20.53,24.6,4.72,26.02M833.1,527.48c-27.88,5.36-28.78,51.81,3.3,55.38,44.31,4.94,41.43-63.99-3.3-55.38" fill="#1d1d1b"/>
      <path d="M935.52,568.2c-15.37,1.38-17.1-22.69-4.72-26.02,17.55-4.72,20.53,24.6,4.72,26.02M927.28,527.48c-27.88,5.36-28.78,51.81,3.3,55.38,44.31,4.94,41.43-63.99-3.3-55.38" fill="#1d1d1b"/>
    </g>
    <g id="Letter_x5F_E">
      <path d="M1144.52,553.85c0-9.16,8.18-17.05,17.74-11.98,2.03,1.08,3.81,2.83,4.28,5.07,0,0,0,0,0,0l-22.01,6.91s0,0,0,0M1171.62,559.11s0,0,0,0c-1.23,4.04-2.67,5.65-4.98,7-6.34,3.71-16.61,2.93-19.34-4.38,0,0,0,0,0,0l37.26-11.71s0,0,0,0c-3.34-30.46-51.25-31.46-55.27.08-3.58,28.15,31.31,45.22,51.11,23.68,3.8-4.14,5.72-11.1,5.42-15.34l-14.2.67Z" fill="#1d1d1b"/>
    </g>
    <g id="Letter_x5F_Punt">
      <path d="M1191.88,568.45c-7.54,1.45-7.79,14.01.89,14.98,11.98,1.34,11.2-17.3-.89-14.98" fill="#1d1d1b"/>
    </g>
    <g id="Letter_x5F_TM">
      <path d="M1202.64,521.72c-.82,1.96-2.4,3.54-4.36,4.36-7.89,3.32-15.4-4.19-12.09-12.09.82-1.96,2.4-3.54,4.36-4.36,7.89-3.32,15.4,4.19,12.09,12.09M1204.09,513.57c-.98-2.45-2.94-4.41-5.38-5.38-9.04-3.61-17.56,4.91-13.95,13.95.98,2.45,2.94,4.41,5.38,5.38,9.04,3.61,17.56-4.91,13.95-13.95" fill="#1d1d1b"/>
      <polygon points="1187.65 516.17 1189.6 516.17 1189.6 521.12 1191.01 521.12 1191.01 516.17 1192.96 516.17 1192.96 515.02 1187.65 515.02 1187.65 516.17" fill="#1d1d1b"/>
      <polygon points="1197.16 518.81 1194.88 515.02 1193.71 515.02 1193.71 521.12 1195.03 521.12 1195.03 517.52 1196.82 520.46 1197.45 520.46 1199.24 517.48 1199.26 521.12 1200.57 521.12 1200.57 515.02 1199.4 515.02 1197.16 518.81" fill="#1d1d1b"/>
    </g>
  </g>
</svg>
