<?xml version="1.0" encoding="UTF-8"?>
<svg xmlns="http://www.w3.org/2000/svg" version="1.1" viewBox="0 0 491.9 83.8">
  <defs>
    <style>
      .cls-1 {
        fill: #1d1d1b;
      }
    </style>
  </defs>
  <!-- Generator: Adobe Illustrator 28.7.1, SVG Export Plug-In . SVG Version: 1.2.0 Build 142)  -->
  <g>
    <g id="Laag_1">
      <g>
        <path class="cls-1" d="M424.1,29.1s0,0,0,0c-3.3-1.7-8.6-1.8-12.1-1.4-7.4.8-12.5,2.9-15.7,6.7v-7.5h-16.5v56.8h16.4v-28.1c.2-5.9,2.3-7.9,3.1-8.8,4.9-5.8,10-4.7,13.9-3.1,0,0,0,0,0,0,2.1-5.8,5.7-10.9,10.7-14.5"/>
        <path class="cls-1" d="M284.1,62.2c-17.2-8.3-13.1-45.3,10.1-45,10.6.1,15.7,6.3,16.9,8.2l14.6-7.3c-1-3-4.3-6.1-5.4-7.2-26.3-26.1-67.8-1.8-67.1,32.5.7,34.9,42.1,51.4,64.5,30.2h0c-4.9-7.7-5.1-15.4-5.1-15.4-4.9,3.8-14.9,10.5-28.5,3.9"/>
        <path class="cls-1" d="M347,68.2c-15.4,1.4-17.1-22.7-4.7-26,17.6-4.7,20.5,24.6,4.7,26M338.8,27.5c-27.9,5.4-28.8,51.8,3.3,55.4,44.3,4.9,41.4-64-3.3-55.4"/>
        <path class="cls-1" d="M178.1,9.6l-.2,15.3h14.5v12h-14.6c-.1,8.1-.8,18.4,0,26.4.8,7.6,11.6,4,12.8,4.3.7.1,1.4,11,1.8,13.6-14.2,2.7-29.2,1.7-31.2-14.4-.9-7.7.1-22.8.2-28.8v-1h-7.2v-12h7.2V8.5h16.8v1.1s0,0,0,0Z"/>
        <path class="cls-1" d="M106.9,29.1s0,0,0,0c-3.3-1.7-8.5-1.8-12.1-1.4-7.4.8-12.5,2.9-15.7,6.7v-7.5h-16.5v56.8h16.4v-28.1c.2-5.9,2.3-7.9,3.1-8.8,4.9-5.8,10-4.7,14-3.1,0,0,0,0,0,0,2.1-5.8,5.7-10.9,10.7-14.5"/>
        <path class="cls-1" d="M18.3,42.4h0v-22.2h0c30.9-3.6,28.7,24.9,0,22.2M35.7,6.6c-10.8-1.4-24.3-1.6-35.7,0h0v76.6h18.3v-23.8c15.7-.3,22.8-2.9,31.5-10.2,16.4-13.8,8-39.7-14.2-42.6"/>
        <path class="cls-1" d="M128.3,68.4c-15.4,1.4-17.1-22.7-4.7-26,17.5-4.7,20.5,24.6,4.7,26M120,27.7c-27.9,5.4-28.8,51.8,3.3,55.4,44.3,4.9,41.4-64-3.3-55.4"/>
        <path class="cls-1" d="M222.5,68.4c-15.4,1.4-17.1-22.7-4.7-26,17.5-4.7,20.5,24.6,4.7,26M214.2,27.7c-27.9,5.4-28.8,51.8,3.3,55.4,44.3,4.9,41.4-64-3.3-55.4"/>
        <path id="_x23_Letter_x5F_x5F_x5F_E" class="cls-1" d="M431.5,54c0-9.2,8.2-17,17.7-12,2,1.1,3.8,2.8,4.3,5.1h0l-22,6.9h0M458.5,59.3h0c-1.2,4-2.7,5.7-5,7-6.3,3.7-16.6,2.9-19.3-4.4h0l37.3-11.7h0c-3.3-30.5-51.2-31.5-55.3,0-3.6,28.2,31.3,45.2,51.1,23.7,3.8-4.1,5.7-11.1,5.4-15.3l-14.2.7h0Z"/>
        <g id="_x23_Letter_x5F_x5F_x5F_Punt">
          <path class="cls-1" d="M478.8,68.6c-7.5,1.5-7.8,14,.9,15,12,1.3,11.2-17.3-.9-15"/>
        </g>
        <path class="cls-1" d="M489.6,21.9c-.8,2-2.4,3.5-4.4,4.4-7.9,3.3-15.4-4.2-12.1-12.1.8-2,2.4-3.5,4.4-4.4,7.9-3.3,15.4,4.2,12.1,12.1M491,13.7c-1-2.5-2.9-4.4-5.4-5.4-9-3.6-17.6,4.9-13.9,14,1,2.5,2.9,4.4,5.4,5.4,9,3.6,17.6-4.9,13.9-14"/>
        <polygon class="cls-1" points="474.6 16.3 476.5 16.3 476.5 21.3 477.9 21.3 477.9 16.3 479.9 16.3 479.9 15.2 474.6 15.2 474.6 16.3"/>
        <polygon class="cls-1" points="484.1 19 481.8 15.2 480.6 15.2 480.6 21.3 482 21.3 482 17.7 483.7 20.6 484.4 20.6 486.2 17.7 486.2 21.3 487.5 21.3 487.5 15.2 486.3 15.2 484.1 19"/>
      </g>
    </g>
  </g>
</svg>